<svg xmlns="http://www.w3.org/2000/svg" width="430" height="430" style="width:100%;height:100%;transform:translate3d(0,0,0);content-visibility:visible" viewBox="0 0 430 430"><defs><clipPath id="e"><path d="M0 0h430v430H0z"/></clipPath><clipPath id="p"><path d="M0 0h430v430H0z"/></clipPath><clipPath id="q"><path d="M0 0h430v430H0z"/></clipPath><clipPath id="m"><path d="M0 0h430v430H0z"/></clipPath><clipPath id="o"><path d="M0 0h500v500H0z"/></clipPath><clipPath id="j"><path d="M0 0h430v430H0z"/></clipPath><clipPath id="k"><path d="M0 0h500v500H0z"/></clipPath><clipPath id="f"><path d="M0 0h430v430H0z"/></clipPath><clipPath id="g"><path d="M0 0h500v500H0z"/></clipPath><path id="a" style="display:none"/><path id="b" fill="#4BB3FD" d="M166.05 0c0 91.706-74.344 166.05-166.05 166.05S-166.05 91.706-166.05 0-91.706-166.05 0-166.05 166.05-91.706 166.05 0" style="display:block" transform="translate(215.002 215.001)"/><path id="c" style="display:none"/><path id="d" style="display:none"/><mask id="r" mask-type="alpha"><use xmlns:ns1="http://www.w3.org/1999/xlink" ns1:href="#a"/></mask><mask id="n" mask-type="alpha"><use xmlns:ns2="http://www.w3.org/1999/xlink" ns2:href="#b"/></mask><mask id="l" mask-type="alpha"><use xmlns:ns3="http://www.w3.org/1999/xlink" ns3:href="#c"/></mask><mask id="h" mask-type="alpha"><use xmlns:ns4="http://www.w3.org/1999/xlink" ns4:href="#d"/></mask></defs><g clip-path="url(#e)"><g clip-path="url(#f)" style="display:none"><path class="secondary" style="display:none"/><g style="mix-blend-mode:multiply;display:none"><path class="secondary" style="mix-blend-mode:multiply"/></g><g fill="none" clip-path="url(#g)" mask="url(#h)" style="display:none"><path class="primary" style="display:none"/><path class="primary" style="display:none"/><path class="primary" style="display:none"/><path class="primary" style="display:none"/><path class="primary" style="display:none"/><path class="primary" style="display:none"/><path class="primary" style="display:none"/><path class="primary" style="display:none"/><path class="primary" style="display:none"/><path class="primary" style="display:none"/><path class="primary" style="display:none"/><path class="primary" style="display:none"/><path class="primary" style="display:none"/></g><path fill="none" class="primary" style="display:none"/></g><g clip-path="url(#j)" style="display:none"><path class="secondary" style="display:none"/><g style="mix-blend-mode:multiply;display:none"><path class="secondary" style="mix-blend-mode:multiply"/></g><g fill="none" clip-path="url(#k)" mask="url(#l)" style="display:none"><path class="primary" style="display:none"/><path class="primary" style="display:none"/><path class="primary" style="display:none"/><path class="primary" style="display:none"/><path class="primary" style="display:none"/><path class="primary" style="display:none"/><path class="primary" style="display:none"/><path class="primary" style="display:none"/><path class="primary" style="display:none"/><path class="primary" style="display:none"/><path class="primary" style="display:none"/><path class="primary" style="display:none"/><path class="primary" style="display:none"/></g><path fill="none" class="primary" style="display:none"/></g><g clip-path="url(#m)" style="display:block"><path fill="#4AB3FC" d="M166.05 0c0 91.706-74.344 166.05-166.05 166.05S-166.05 91.706-166.05 0-91.706-166.05 0-166.05 166.05-91.706 166.05 0" class="secondary" style="display:block" transform="translate(215.002 215.001)"/><g opacity=".5" style="mix-blend-mode:multiply;display:block"><path fill="#4AB3FC" d="M83.025 166.05c-91.7 0-166.05-74.34-166.05-166.05s74.35-166.05 166.05-166.05c-34.47 0-62.41 74.34-62.41 166.05s27.94 166.05 62.41 166.05" class="secondary" opacity="1" style="mix-blend-mode:multiply" transform="translate(131.975 214.999)"/></g><g mask="url(#n)" style="display:block"><g fill="none" clip-path="url(#o)" transform="matrix(.9 0 0 .9 -10 -10)"><path stroke="#121330" stroke-linecap="round" stroke-linejoin="round" stroke-width="2" d="M126.667 50c-17.029 0-30.834-22.386-30.834-50s13.805-50 30.834-50m0 100c.083-8.75.166-22.386.166-50s-.083-34.25-.166-50" class="primary" style="display:block" transform="translate(-217.488 249.997)scale(3.69)"/><path stroke="#121330" stroke-linecap="round" stroke-linejoin="round" stroke-width="2" d="M126.667 50C144.248 50 158.5 27.614 158.5 0s-14.252-50-31.833-50" class="primary" style="display:block" transform="translate(-217.488 249.997)scale(3.69)"/><path class="primary" style="display:none"/><path class="primary" style="display:none"/><path class="primary" style="display:none"/><path class="primary" style="display:none"/><path stroke="#121330" stroke-linecap="round" stroke-linejoin="round" stroke-width="2" d="M126.667 50c-17.029 0-30.834-22.386-30.834-50s13.805-50 30.834-50m0 100c.083-8.75.166-22.386.166-50s-.083-34.25-.166-50" class="primary" style="display:none" transform="translate(-217.488 249.997)scale(3.69)"/><path stroke="#121330" stroke-linecap="round" stroke-linejoin="round" stroke-width="2" d="M126.667 50C144.248 50 158.5 27.614 158.5 0s-14.252-50-31.833-50" class="primary" style="display:none" transform="translate(-217.488 249.997)scale(3.69)"/><path stroke="#121330" stroke-linecap="round" stroke-linejoin="round" stroke-width="2" d="M76.667 0h100" class="primary" style="display:block" transform="translate(-217.488 249.997)scale(3.69)"/><path stroke="#121330" stroke-linecap="round" stroke-linejoin="round" stroke-width="2" d="M158.993-38.138c-8.71 4.56-19.99 7.31-32.32 7.31s-23.61-2.75-32.33-7.31m0 76.278c8.71-4.56 19.99-7.31 32.32-7.31s23.61 2.75 32.33 7.31" class="primary" style="display:block" transform="translate(-217.484 249.997)scale(3.69)"/></g></g><path fill="none" stroke="#121330" stroke-linecap="round" stroke-linejoin="round" stroke-width="2" d="M176.667 0c0 27.614-22.386 50-50 50s-50-22.386-50-50 22.386-50 50-50 50 22.386 50 50" class="primary" style="display:block" transform="translate(-205.736 215)scale(3.321)"/></g><g clip-path="url(#p)" style="display:none"><path class="secondary" style="display:none"/><g style="mix-blend-mode:multiply;display:none"><path class="secondary" style="mix-blend-mode:multiply"/></g><g fill="none" clip-path="url(#q)" mask="url(#r)" style="display:none"><path class="primary" style="display:none"/><path class="primary" style="display:none"/><path class="primary" style="display:none"/><path class="primary" style="display:none"/><path class="primary" style="display:none"/><path class="primary" style="display:none"/><path class="primary" style="display:none"/><path class="primary" style="display:none"/><path class="primary" style="display:none"/><path class="primary" style="display:none"/><path class="primary" style="display:none"/><path class="primary" style="display:none"/><path class="primary" style="display:none"/></g><path fill="none" class="primary" style="display:none"/></g></g></svg>